<svg xmlns="http://www.w3.org/2000/svg" version="1.1" xmlns:xlink="http://www.w3.org/1999/xlink" width="512" height="512" x="0" y="0" viewBox="0 0 64 64" style="enable-background:new 0 0 512 512" xml:space="preserve"><g><path d="M24.789 17.24a1.5 1.5 0 0 1-1.474-1.229l-1.433-7.794a3.477 3.477 0 0 1 .573-2.636 3.493 3.493 0 0 1 2.286-1.454 42.486 42.486 0 0 1 14.518 0 3.493 3.493 0 0 1 2.286 1.454c.54.773.743 1.71.573 2.636l-.562 3.054a1.5 1.5 0 0 1-2.95-.542l.561-3.054a.497.497 0 0 0-.083-.378.516.516 0 0 0-.335-.214 39.497 39.497 0 0 0-13.498 0 .516.516 0 0 0-.336.214.496.496 0 0 0-.082.379l1.432 7.793a1.5 1.5 0 0 1-1.476 1.772z" fill="#031926" opacity="1" data-original="#000000"></path><path d="M32 46.5c-11.304 0-20.5-9.196-20.5-20.5 0-7.839 4.362-14.872 11.383-18.354a1.5 1.5 0 1 1 1.333 2.688C18.223 13.306 14.5 19.309 14.5 26c0 9.65 7.85 17.5 17.5 17.5S49.5 35.65 49.5 26c0-6.69-3.723-12.694-9.716-15.666a1.5 1.5 0 1 1 1.333-2.688C48.138 11.128 52.5 18.161 52.5 26c0 11.304-9.196 20.5-20.5 20.5z" fill="#031926" opacity="1" data-original="#000000"></path><path d="M13.98 33.5H11A4.505 4.505 0 0 1 6.5 29v-5c0-2.481 2.019-4.5 4.5-4.5h2.67a1.5 1.5 0 1 1 0 3H11c-.827 0-1.5.673-1.5 1.5v5c0 .827.673 1.5 1.5 1.5h2.98a1.5 1.5 0 1 1 0 3zM53 33.5h-2.98a1.5 1.5 0 1 1 0-3H53c.827 0 1.5-.673 1.5-1.5v-5c0-.827-.673-1.5-1.5-1.5h-2.67a1.5 1.5 0 1 1 0-3H53c2.481 0 4.5 2.019 4.5 4.5v5c0 2.481-2.019 4.5-4.5 4.5z" fill="#031926" opacity="1" data-original="#000000"></path><path d="M11 22.5A1.5 1.5 0 0 1 9.5 21V8a1.5 1.5 0 1 1 3 0v13a1.5 1.5 0 0 1-1.5 1.5zM53 22.5a1.5 1.5 0 0 1-1.5-1.5V8a1.5 1.5 0 1 1 3 0v13a1.5 1.5 0 0 1-1.5 1.5zM56 60.5H8A1.5 1.5 0 0 1 6.5 59V49c0-5.79 4.71-10.5 10.5-10.5h2.17a1.5 1.5 0 1 1 0 3H17c-4.136 0-7.5 3.364-7.5 7.5v8.5h45V49c0-4.136-3.364-7.5-7.5-7.5h-2.17a1.5 1.5 0 1 1 0-3H47c5.79 0 10.5 4.71 10.5 10.5v10a1.5 1.5 0 0 1-1.5 1.5z" fill="#031926" opacity="1" data-original="#000000"></path><path d="M17.655 60.5a1.5 1.5 0 0 1-1.5-1.5v-2.787c0-5.08-1.676-10.12-4.717-14.188a1.5 1.5 0 0 1 2.402-1.796 26.862 26.862 0 0 1 5.315 15.984V59a1.5 1.5 0 0 1-1.5 1.5zM46.345 60.5a1.5 1.5 0 0 1-1.5-1.5v-2.787c0-5.724 1.887-11.4 5.315-15.984a1.5 1.5 0 0 1 2.402 1.796 23.846 23.846 0 0 0-4.717 14.188V59a1.5 1.5 0 0 1-1.5 1.5zM40 60.5a1.5 1.5 0 0 1-1.5-1.5v-5.5h-13V59a1.5 1.5 0 1 1-3 0v-7a1.5 1.5 0 0 1 1.5-1.5h16a1.5 1.5 0 0 1 1.5 1.5v7a1.5 1.5 0 0 1-1.5 1.5zM32 39.5c-2.157 0-4.244-.382-6.203-1.137C20.834 36.451 17.5 31.483 17.5 26s3.334-10.452 8.297-12.363c3.917-1.51 8.489-1.51 12.406 0C43.166 15.548 46.5 20.517 46.5 26s-3.334 10.452-8.297 12.363A17.185 17.185 0 0 1 32 39.5zm0-24c-1.787 0-3.511.315-5.125.937C23.062 17.905 20.5 21.749 20.5 26s2.562 8.095 6.375 9.563c3.227 1.244 7.023 1.244 10.25 0C40.938 34.095 43.5 30.251 43.5 26s-2.562-8.095-6.375-9.563A14.194 14.194 0 0 0 32 15.5z" fill="#031926" opacity="1" data-original="#000000"></path><path d="M40.001 24.441a1.5 1.5 0 0 1-1.272-.703C37.496 21.771 34.854 20.5 32 20.5a1.5 1.5 0 1 1 0-3c3.922 0 7.474 1.78 9.271 4.645a1.5 1.5 0 0 1-1.27 2.296z" fill="#031926" opacity="1" data-original="#000000"></path></g></svg>