<svg xmlns="http://www.w3.org/2000/svg" version="1.1" xmlns:xlink="http://www.w3.org/1999/xlink" width="512" height="512" x="0" y="0" viewBox="0 0 1707 1707" style="enable-background:new 0 0 512 512" xml:space="preserve" fill-rule="evenodd"><g><path d="M642 1234c-60 0-109-49-109-109v-114c0-10 7-17 17-17 9 0 16 7 16 17v114c0 42 34 76 76 76s76-34 76-76v-114c0-10 7-17 17-17 9 0 16 7 16 17v114c0 60-49 109-109 109z" fill="#000000" opacity="1" data-original="#000000"></path><path d="M642 1041c-91 0-177-35-241-100-65-65-101-151-101-241V588c0-10 7-17 17-17 9 0 16 7 16 17v112c0 170 139 308 309 308s309-138 309-308V588c0-10 7-17 17-17 9 0 16 7 16 17v112c1 188-153 341-342 341z" fill="#000000" opacity="1" data-original="#000000"></path><path d="M968 604h-4c-8-2-13-10-13-18 1-5 11-123-76-137-22-3-33 0-50 4-8 2-17 4-29 6-38 6-117 9-213-47-78-47-135-60-173-40-44 24-69 94-77 217 0 7-5 14-13 15-7 2-14-1-18-8-2-3-42-78-56-170-18-124 22-220 116-278 8-16 37-68 102-106 69-41 194-72 396 8 6 2 10 8 10 14 1 6-2 12-7 15-20 15-41 32-50 44 5 1 10 3 14 4 50 15 154 46 197 143 36 81 23 190-41 325-3 6-9 9-15 9zM630 33c-56 0-105 12-147 36-68 39-93 96-93 97-1 3-3 6-7 8-85 51-120 133-104 246 6 39 17 75 27 103 14-98 42-156 89-181 49-26 116-12 205 41 87 51 157 49 191 43 10-2 18-4 26-6 17-4 34-9 63-4 60 10 88 56 99 102 36-96 41-175 15-234-37-84-128-111-176-125-28-9-43-13-43-30v-1c2-19 24-41 45-58-69-24-133-37-190-37z" fill="#000000" opacity="1" data-original="#000000"></path><path d="M978 746c-4 0-10 0-16-1-9-2-14-11-12-20s11-15 20-12h8c33 0 59-25 59-57s-27-58-59-58h-1c-8 3-17-1-21-9s0-18 8-22c5-3 11-3 14-3 51 0 92 41 92 92 0 50-42 90-92 90zM307 746c-51 0-92-40-92-90 0-51 41-92 92-92 2 0 6 0 12 2 9 3 13 12 11 21-3 9-13 13-21 11h-2c-32 0-58 26-58 58s26 57 58 57h6c9-3 18 2 21 11 3 8-2 18-11 21-6 1-11 1-16 1zM231 1706c-10 0-17-7-17-16v-149c0-10 7-17 17-17 9 0 16 7 16 17v149c0 9-7 16-16 16zM850 579c-5 0-10-2-13-6-15-21-39-33-63-33s-48 12-63 33c-5 7-16 9-23 3-7-5-9-16-3-23 21-29 54-46 89-46s68 17 89 46c6 7 4 18-3 23-3 2-7 3-10 3zM587 579c-5 0-10-2-14-6-15-21-38-33-62-33-25 0-48 12-63 33-5 7-16 9-23 3-8-5-9-16-4-23 22-29 55-46 90-46 34 0 68 17 89 46 5 7 4 18-3 23-3 2-7 3-10 3zM508 668c-10 0-17-7-17-16v-37c0-10 7-17 17-17 9 0 16 7 16 17v37c0 9-7 16-16 16zM777 668c-10 0-17-7-17-16v-37c0-10 7-17 17-17 9 0 16 7 16 17v37c0 9-7 16-16 16zM642 858c-35 0-67-16-89-44-6-7-5-18 3-23 7-6 17-5 23 3 16 20 39 31 63 31 25 0 48-11 63-31 5-7 16-9 23-3 7 5 9 16 3 23-21 28-53 44-89 44z" fill="#000000" opacity="1" data-original="#000000"></path><path d="M1230 1706H55c-10 0-17-7-17-16v-205c0-194 158-352 352-352h163c9 0 16 7 16 17 0 9-7 16-16 16H390c-176 0-319 143-319 319v188h1159c9 0 17 7 17 17 0 9-8 16-17 16zm-405-540h-93c-10 0-17-7-17-16 0-10 7-17 17-17h93c9 0 16 7 16 17 0 9-7 16-16 16z" fill="#000000" opacity="1" data-original="#000000"></path><path d="M1230 1706c-242 0-439-196-439-438s197-438 439-438 439 196 439 438-197 438-439 438zm0-843c-224 0-405 182-405 405s182 405 405 405 405-182 405-405-182-405-405-405zM642 1383c-10 0-17-7-17-16v-149c0-10 7-17 17-17 9 0 16 7 16 17v149c0 9-7 16-16 16z" fill="#000000" opacity="1" data-original="#000000"></path><path d="M1230 1610c-188 0-342-153-342-342s154-342 342-342 342 153 342 342-154 342-342 342zm0-651c-170 0-308 139-308 309s138 309 308 309 308-139 308-309-138-309-308-309z" fill="#000000" opacity="1" data-original="#000000"></path><path d="M1230 1522c-31 0-57-25-57-55v-223c0-31 26-56 57-56s57 25 57 56v223c0 30-26 55-57 55zm0-301c-13 0-23 11-23 23v223c0 12 10 22 23 22s23-10 23-22v-223c0-13-10-23-23-23zM1230 1151c-31 0-57-25-57-56v-25c0-32 26-57 57-57s57 25 57 57v25c0 31-26 56-57 56zm0-105c-13 0-23 11-23 24v25c0 13 10 23 23 23s23-10 23-23v-25c0-13-10-24-23-24z" fill="#000000" opacity="1" data-original="#000000"></path></g></svg>