<svg xmlns="http://www.w3.org/2000/svg" version="1.1" xmlns:xlink="http://www.w3.org/1999/xlink" width="512" height="512" x="0" y="0" viewBox="0 0 682.667 682.667" style="enable-background:new 0 0 512 512" xml:space="preserve"><g><defs><clipPath id="a" clipPathUnits="userSpaceOnUse"><path d="M0 512h512V0H0Z" fill="#031926" opacity="1" data-original="#000000"></path></clipPath></defs><g clip-path="url(#a)" transform="matrix(1.33333 0 0 -1.33333 0 682.667)"><path d="M0 0a25.022 25.022 0 0 1-17.88 9.33c-1.77.11-3.55.23-5.33.36-21.59 1.51-39.02 18.32-41.38 39.82-9.05 82.81-9.05 165.6.01 248.4 2.36 21.49 19.809 38.22 41.38 39.72 22.929 1.62 45.849 2.9 68.77 3.85 84.35 3.55 168.7 2.71 253.06-2.5" style="stroke-linecap: round; stroke-linejoin: round; stroke-miterlimit: 10; stroke-dasharray: none; stroke-opacity: 1;" transform="translate(85.62 93.41)" fill="none" stroke="#031926" stroke-width="15px" stroke-linecap="round" stroke-linejoin="round" stroke-miterlimit="10" stroke-dasharray="none" stroke-opacity="" data-original="#000000" opacity="1"></path><path d="M0 0c7.63-78.3 7.16-156.59-1.4-234.87-.5-4.47-1.64-8.76-3.361-12.72-6.46-15.09-20.949-25.82-38.019-27.01a2443.896 2443.896 0 0 0-183.66-5.96c-8.26.04-16.031-3.91-20.73-10.69-19.891-28.61-52.301-56.21-76.66-74.77-13.34-10.16-32.55-.64-32.55 16.15v33.24" style="stroke-linecap: round; stroke-linejoin: round; stroke-miterlimit: 10; stroke-dasharray: none; stroke-opacity: 1;" transform="translate(447.53 377.7)" fill="none" stroke="#031926" stroke-width="15px" stroke-linecap="round" stroke-linejoin="round" stroke-miterlimit="10" stroke-dasharray="none" stroke-opacity="" data-original="#000000" opacity="1"></path><path d="M0 0h174.356" style="stroke-linecap: round; stroke-linejoin: round; stroke-miterlimit: 10; stroke-dasharray: none; stroke-opacity: 1;" transform="translate(75.946 351.053)" fill="none" stroke="#031926" stroke-width="15px" stroke-linecap="round" stroke-linejoin="round" stroke-miterlimit="10" stroke-dasharray="none" stroke-opacity="" data-original="#000000" opacity="1"></path><path d="M0 0h174.356" style="stroke-linecap: round; stroke-linejoin: round; stroke-miterlimit: 10; stroke-dasharray: none; stroke-opacity: 1;" transform="translate(75.946 313.39)" fill="none" stroke="#031926" stroke-width="15px" stroke-linecap="round" stroke-linejoin="round" stroke-miterlimit="10" stroke-dasharray="none" stroke-opacity="" data-original="#000000" opacity="1"></path><path d="M0 0h174.356" style="stroke-linecap: round; stroke-linejoin: round; stroke-miterlimit: 10; stroke-dasharray: none; stroke-opacity: 1;" transform="translate(75.946 275.726)" fill="none" stroke="#031926" stroke-width="15px" stroke-linecap="round" stroke-linejoin="round" stroke-miterlimit="10" stroke-dasharray="none" stroke-opacity="" data-original="#000000" opacity="1"></path><path d="M0 0h174.356" style="stroke-linecap: round; stroke-linejoin: round; stroke-miterlimit: 10; stroke-dasharray: none; stroke-opacity: 1;" transform="translate(75.946 238.063)" fill="none" stroke="#031926" stroke-width="15px" stroke-linecap="round" stroke-linejoin="round" stroke-miterlimit="10" stroke-dasharray="none" stroke-opacity="" data-original="#000000" opacity="1"></path><path d="M0 0h68.362" style="stroke-linecap: round; stroke-linejoin: round; stroke-miterlimit: 10; stroke-dasharray: none; stroke-opacity: 1;" transform="translate(75.946 200.4)" fill="none" stroke="#031926" stroke-width="15px" stroke-linecap="round" stroke-linejoin="round" stroke-miterlimit="10" stroke-dasharray="none" stroke-opacity="" data-original="#000000" opacity="1"></path><path d="m0 0 14.245 26.371c3.6 6.666 1.11 15.002-5.555 18.602l-20.453 11.048c-6.674 3.605-15.002 1.111-18.601-5.554l-14.245-26.371" style="stroke-linecap: round; stroke-linejoin: round; stroke-miterlimit: 10; stroke-dasharray: none; stroke-opacity: 1;" transform="translate(466.01 446.827)" fill="none" stroke="#031926" stroke-width="15px" stroke-linecap="round" stroke-linejoin="round" stroke-miterlimit="10" stroke-dasharray="none" stroke-opacity="" data-original="#000000" opacity="1"></path><path d="M0 0c13.447-5.15 31.659-17.354 27.193-45.094-6.919-42.923-89.589-135.725-86.854-160.798" style="stroke-linecap: round; stroke-linejoin: round; stroke-miterlimit: 10; stroke-dasharray: none; stroke-opacity: 1;" transform="translate(469.879 453.988)" fill="none" stroke="#031926" stroke-width="15px" stroke-linecap="round" stroke-linejoin="round" stroke-miterlimit="10" stroke-dasharray="none" stroke-opacity="" data-original="#000000" opacity="1"></path><path d="m0 0 75.143-40.588" style="stroke-linecap: butt; stroke-linejoin: round; stroke-miterlimit: 10; stroke-dasharray: none; stroke-opacity: 1;" transform="translate(306.673 295.035)" fill="none" stroke="#031926" stroke-width="15px" stroke-linecap="butt" stroke-linejoin="round" stroke-miterlimit="10" stroke-dasharray="none" stroke-opacity="" data-original="#000000" opacity="1"></path><path d="m0 0-5.295-8.624" style="stroke-linecap: round; stroke-linejoin: round; stroke-miterlimit: 10; stroke-dasharray: none; stroke-opacity: 1;" transform="translate(287.458 169.616)" fill="none" stroke="#031926" stroke-width="15px" stroke-linecap="round" stroke-linejoin="round" stroke-miterlimit="10" stroke-dasharray="none" stroke-opacity="" data-original="#000000" opacity="1"></path><path d="M0 0c16.75 26.34 33.62 48.79 48.98 65.56 6.38 6.96 16.68 8.66 24.98 4.18l21.051-11.37c8.309-4.49 12.529-14.04 10.199-23.18C96.66 1.53 78.971-42.3 54.28-88.01 5.58-178.16-51.899-241.54-74.1-229.54c-22.2 11.99-.71 94.8 47.981 184.96 2.949 5.46 5.93 10.83 8.939 16.08" style="stroke-linecap: round; stroke-linejoin: round; stroke-miterlimit: 10; stroke-dasharray: none; stroke-opacity: 1;" transform="translate(361.56 399.16)" fill="none" stroke="#031926" stroke-width="15px" stroke-linecap="round" stroke-linejoin="round" stroke-miterlimit="10" stroke-dasharray="none" stroke-opacity="" data-original="#000000" opacity="1"></path></g></g></svg>