<svg xmlns="http://www.w3.org/2000/svg" version="1.1" xmlns:xlink="http://www.w3.org/1999/xlink" width="512" height="512" x="0" y="0" viewBox="0 0 512 512" style="enable-background:new 0 0 512 512" xml:space="preserve" class=""><g><path d="M451.323 359.981V241H271.889v-88.982h60.692V0H181.229v152.018h60.661V241H60.676v118.981H0V512h151.353V359.981H90.676V271h151.213v88.981h-61.566V512h151.353V359.981h-59.787V271h149.434v88.981h-60.676V512H512V359.981h-60.677zm-329.97 30V482H30v-92.019h91.353zm180.323 0V482h-91.353v-92.019h91.353zm-90.447-267.963V30h91.353v92.018h-91.353zM482 482h-91.353v-92.019H482V482z" fill="#031926" opacity="1" data-original="#000000" class=""></path></g></svg>