<svg xmlns="http://www.w3.org/2000/svg" version="1.1" xmlns:xlink="http://www.w3.org/1999/xlink" width="512" height="512" x="0" y="0" viewBox="0 0 64 64" style="enable-background:new 0 0 512 512" xml:space="preserve" class=""><g><path d="M58.545 30.355c-1.073-.983-4.937-3.788-7.043-5.063-1.416-.858-3.895-2.474-5.21-3.492-1.77-1.37-4.947-3.264-6.429-.499-.202.378-.11 1.22.61 1.995.943 1.016 8.59 5.654 10.309 7.205-1.83-.221-9.81-.332-14.355-.388-1.509-.018-5.6-.028-7.006.542-1.57.638-2.749 4.225.521 4.114 2.77-.094 6.027-.235 8.91-.235 3.575 0 8.05.18 11.708.013-1.873.9-4.379 2.716-5.575 3.74-1.104.947-2.406 2.413-2.295 4.241.08 1.314 2.383 2.55 4.267.5 2.92-3.177 6.042-5.044 8.153-6.356 1.309-.812 2.622-1.706 3.653-2.9 1.07-1.241.882-2.409-.218-3.417zm-41.505.486c-1.355-.994-3.287-.392-4.002 1.323-.417 1.002-.632 2.185-.499 3.326.167 1.42 1.142 1.889 2.384 1.718 1.607-.222 2.66-2.273 2.9-4.058.138-1.013.043-1.703-.783-2.309zm-7.66 1.711c-.443-1.385-1.995-1.884-3.27-.831-1.58 1.306-2.176 3.53-.867 5.323.814 1.116 2.39.743 3.234-.16 1.124-1.205 1.386-2.823.903-4.332zm14.244-1.94c-2.161 0-2.833 2.095-2.81 3.81.006.454.113.918.377 1.287 1.003 1.402 2.48.713 3.542.169 1.202-.616 1.245-2.103 1.06-3.18-.284-1.642-1.282-2.086-2.169-2.086z" fill="#031926" opacity="1" data-original="#000000"></path></g></svg>