<svg xmlns="http://www.w3.org/2000/svg" version="1.1" xmlns:xlink="http://www.w3.org/1999/xlink" width="512" height="512" x="0" y="0" viewBox="0 0 60 60" style="enable-background:new 0 0 512 512" xml:space="preserve"><g><path d="m1.2 28.6 12.542 7.9 5.675 14.171a2.11 2.11 0 0 0 3.188.931l7.1-5.049 12.709 8.007a2.8 2.8 0 0 0 1.5.438 2.837 2.837 0 0 0 2.714-2.019L59.875 8.747a2.909 2.909 0 0 0-3.737-3.584L1.735 23.982A2.58 2.58 0 0 0 1.2 28.6zm19.18 19.1-4.593-11.47L45.97 16.948a.084.084 0 0 1 .037.115L21.6 39.972a1.076 1.076 0 0 0-.095.127c-.02.026-.048.041-.066.069-.007.012-.007.026-.014.038a.988.988 0 0 0-.1.254.876.876 0 0 0-.029.1c0 .006-.005.012-.006.018zm1.79 1.763.908-7.079 4.798 3.016zM2 26.353a.563.563 0 0 1 .386-.481l54.4-18.819a.908.908 0 0 1 1.167 1.12L44.715 52.408a.829.829 0 0 1-1.235.464l-13.268-8.36-.028-.018-6.267-3.949 23.459-22.024a2.058 2.058 0 0 0-2.517-3.235L14.551 34.647l-12.28-7.739A.56.56 0 0 1 2 26.353z" fill="#031926" opacity="1" data-original="#000000"></path></g></svg>