<svg xmlns="http://www.w3.org/2000/svg" version="1.1" xmlns:xlink="http://www.w3.org/1999/xlink" width="512" height="512" x="0" y="0" viewBox="0 0 60 60" style="enable-background:new 0 0 512 512" xml:space="preserve"><g><g fill="#000" fill-rule="nonzero"><path d="M56 0H36a4 4 0 0 0-4 4v12a4 4 0 0 0 4 4h.617l-.609 4.876a1 1 0 0 0 1.65.877L44.236 20H56a4 4 0 0 0 4-4V4a4 4 0 0 0-4-4zm2 16a2 2 0 0 1-2 2H43.86a1 1 0 0 0-.658.247l-4.884 4.272.424-3.395A1 1 0 0 0 37.75 18H36a2 2 0 0 1-2-2V4a2 2 0 0 1 2-2h20a2 2 0 0 1 2 2z" fill="#031926" opacity="1" data-original="#000000"></path><path d="M39 7a3 3 0 1 0 0 6 3 3 0 0 0 0-6zm0 4a1 1 0 1 1 0-2 1 1 0 0 1 0 2zM46 7a3 3 0 1 0 0 6 3 3 0 0 0 0-6zm0 4a1 1 0 1 1 0-2 1 1 0 0 1 0 2zM53 7a3 3 0 1 0 0 6 3 3 0 0 0 0-6zm0 4a1 1 0 1 1 0-2 1 1 0 0 1 0 2zM56 35h-8.764l-6.578-5.753a1 1 0 0 0-1.65.877L39.617 35H39a4 4 0 0 0-4 4v9a4 4 0 0 0 4 4h17a4 4 0 0 0 4-4v-9a4 4 0 0 0-4-4zm2 13a2 2 0 0 1-2 2H39a2 2 0 0 1-2-2v-9a2 2 0 0 1 2-2h1.75a1 1 0 0 0 .992-1.124l-.424-3.395 4.882 4.272a1 1 0 0 0 .66.247H56a2 2 0 0 1 2 2zM4 35h2.624a12.051 12.051 0 0 0 2.537 3.066A15.991 15.991 0 0 0 1 52v5a3 3 0 0 0 3 3h26a3 3 0 0 0 3-3v-5a16.042 16.042 0 0 0-8.156-13.939A12.064 12.064 0 0 0 27.376 35H30a4 4 0 0 0 4-4v-4a3.988 3.988 0 0 0-1.963-3.424 15.978 15.978 0 0 0-30.074 0A3.988 3.988 0 0 0 0 27v4a4 4 0 0 0 4 4zm0-2a2 2 0 0 1-2-2v-4a2 2 0 0 1 2-2h1.7a11.779 11.779 0 0 0 0 8zm3-4a10 10 0 1 1 19.557 2.94 20.485 20.485 0 0 1-5.759 1A3 3 0 0 0 18 31h-2a3 3 0 0 0 0 6h2a2.992 2.992 0 0 0 2.833-2.057 26 26 0 0 0 4.607-.6A9.99 9.99 0 0 1 7 29zm12 5a1 1 0 0 1-1 1h-2a1 1 0 0 1 0-2h2a1 1 0 0 1 1 1zm7.894 8.108A13.868 13.868 0 0 1 31 52v5a1 1 0 0 1-1 1h-5v-6a1 1 0 0 0-2 0v6H11v-6a1 1 0 0 0-2 0v6H4a1 1 0 0 1-1-1v-5a14 14 0 0 1 7.987-12.631 11.9 11.9 0 0 0 12.022 0c1.445.68 2.76 1.606 3.885 2.739zM32 31a2 2 0 0 1-2 2h-1.7a11.779 11.779 0 0 0 0-8H30a2 2 0 0 1 2 2zM17 15a13.966 13.966 0 0 1 12.634 8h-2.258a11.972 11.972 0 0 0-20.752 0H4.366A13.966 13.966 0 0 1 17 15z" fill="#031926" opacity="1" data-original="#000000"></path><path d="M40 42h3a1 1 0 0 0 0-2h-3a1 1 0 0 0 0 2zM55 40h-8a1 1 0 0 0 0 2h8a1 1 0 0 0 0-2zM55 45h-3a1 1 0 0 0 0 2h3a1 1 0 0 0 0-2zM48 45h-8a1 1 0 0 0 0 2h8a1 1 0 0 0 0-2z" fill="#031926" opacity="1" data-original="#000000"></path></g></g></svg>