<svg xmlns="http://www.w3.org/2000/svg" version="1.1" xmlns:xlink="http://www.w3.org/1999/xlink" width="512" height="512" x="0" y="0" viewBox="0 0 512 512" style="enable-background:new 0 0 512 512" xml:space="preserve" class=""><g><path d="M504 379.531h-16.6a21.444 21.444 0 0 0 .693-5.406V87.138a21.578 21.578 0 0 0-21.553-21.554H45.46a21.578 21.578 0 0 0-21.554 21.554v286.987a21.267 21.267 0 0 0 .706 5.406H8a8 8 0 0 0-8 8v12.443a46.5 46.5 0 0 0 46.442 46.442h419.116A46.5 46.5 0 0 0 512 399.974v-12.443a8 8 0 0 0-8-8zm-460.074-.068a5.592 5.592 0 0 1-4.02-5.338V87.138a5.56 5.56 0 0 1 5.554-5.554h421.08a5.56 5.56 0 0 1 5.554 5.554v286.987a5.565 5.565 0 0 1-4.143 5.372c-.036.01-.07.024-.107.034H44.123c-.066-.021-.13-.049-.197-.068zm144.453 16.068h135.242v11.9H188.379zM496 399.974a30.476 30.476 0 0 1-30.442 30.442H46.442A30.476 30.476 0 0 1 16 399.974v-4.443h156.379v15.327a12.589 12.589 0 0 0 12.574 12.575h142.094a12.589 12.589 0 0 0 12.574-12.575v-15.327H496zM385.551 224.75a8 8 0 0 1 0 11.314l-45.962 45.962a8 8 0 0 1-11.314-11.314l40.306-40.3-40.306-40.3a8 8 0 0 1 11.314-11.315zM183.724 190.1l-40.3 40.3 40.3 40.3a8 8 0 1 1-11.313 11.314l-45.962-45.962a8 8 0 0 1 0-11.314l45.962-45.962a8 8 0 0 1 11.313 11.324zm121.717-46.794L221.06 324.268a8 8 0 0 1-14.5-6.762l84.38-180.959a8 8 0 0 1 14.5 6.762z" fill="#031926" opacity="1" data-original="#000000"></path></g></svg>